<svg id="svg" version="1.1" xmlns="http://www.w3.org/2000/svg" xmlns:xlink="http://www.w3.org/1999/xlink" width="400" height="343.23232323232327" viewBox="0, 0, 400,343.23232323232327"><g id="svgg"><path id="path0" d="M71.259 70.992 L 56.973 85.418 85.696 114.034 L 114.420 142.650 85.745 171.376 L 57.071 200.101 71.425 214.484 L 85.779 228.867 128.849 185.797 L 171.919 142.727 128.838 99.646 C 105.144 75.952,85.710 56.566,85.651 56.566 C 85.593 56.566,79.117 63.057,71.259 70.992 M171.852 200.134 C 171.562 200.424,171.698 228.420,171.991 228.662 C 172.192 228.830,187.362 228.876,229.516 228.839 L 286.768 228.788 286.768 214.444 L 286.768 200.101 229.377 200.050 C 197.813 200.022,171.926 200.060,171.852 200.134 " stroke="none" fill="#4cfb44" fill-rule="evenodd"></path><path id="path1" d="M21.145 0.134 C 21.071 0.208,20.806 0.292,20.556 0.320 C 20.306 0.347,19.828 0.483,19.495 0.620 C 19.162 0.757,18.710 0.904,18.491 0.945 C 15.564 1.502,5.455 8.900,5.455 10.485 C 5.455 10.591,5.337 10.798,5.192 10.945 C 4.421 11.731,2.520 15.043,1.848 16.772 C 1.698 17.159,1.457 17.747,1.313 18.081 C 1.168 18.414,0.899 19.278,0.716 20.000 C 0.532 20.722,0.296 21.631,0.192 22.020 C 0.075 22.457,0.022 79.715,0.052 171.818 L 0.101 320.909 0.669 322.723 C 2.392 328.225,5.530 333.164,9.293 336.300 C 11.667 338.278,11.803 338.384,11.971 338.384 C 12.063 338.384,12.334 338.566,12.574 338.790 C 13.113 339.292,16.969 341.290,16.973 341.069 C 16.974 340.981,17.051 341.027,17.142 341.172 C 17.234 341.316,17.505 341.449,17.745 341.467 C 17.985 341.485,18.182 341.561,18.182 341.636 C 18.182 341.784,18.242 341.803,20.983 342.530 L 22.876 343.031 200.760 343.031 C 318.287 343.031,378.726 342.963,378.886 342.830 C 379.019 342.720,379.172 342.673,379.225 342.726 C 379.328 342.830,382.152 342.088,382.512 341.864 C 382.630 341.789,382.905 341.701,383.123 341.667 C 383.340 341.634,383.577 341.510,383.650 341.392 C 383.723 341.274,383.818 341.206,383.861 341.242 C 384.016 341.368,385.859 340.569,385.859 340.375 C 385.859 340.267,385.949 340.234,386.061 340.303 C 386.172 340.372,386.263 340.326,386.263 340.202 C 386.263 340.078,386.354 340.032,386.465 340.101 C 386.576 340.170,386.667 340.130,386.667 340.012 C 386.667 339.894,386.735 339.819,386.818 339.844 C 387.038 339.911,388.687 338.946,388.687 338.751 C 388.687 338.660,388.823 338.586,388.990 338.586 C 389.157 338.586,389.293 338.495,389.293 338.384 C 389.293 338.273,389.407 338.181,389.545 338.180 C 390.379 338.173,396.970 331.469,396.970 330.628 C 396.970 330.572,397.232 330.134,397.552 329.657 C 397.873 329.179,398.532 327.970,399.017 326.970 L 399.899 325.152 399.950 171.584 L 400.001 18.017 399.292 16.361 C 398.902 15.450,398.416 14.464,398.213 14.170 C 398.010 13.877,397.783 13.500,397.708 13.333 C 397.357 12.545,396.155 10.803,395.354 9.917 C 395.187 9.733,394.793 9.241,394.478 8.823 C 393.774 7.889,390.316 4.848,389.957 4.848 C 389.814 4.848,389.697 4.770,389.697 4.673 C 389.697 4.577,389.333 4.257,388.889 3.963 C 388.444 3.669,388.081 3.479,388.081 3.540 C 388.081 3.602,387.882 3.467,387.639 3.240 C 387.223 2.853,386.975 2.748,386.616 2.804 C 386.533 2.818,386.465 2.748,386.465 2.651 C 386.465 2.458,385.247 1.894,385.000 1.972 C 384.917 1.999,384.848 1.939,384.848 1.840 C 384.848 1.741,384.598 1.589,384.293 1.503 C 383.574 1.300,383.660 1.332,382.742 0.924 C 382.306 0.730,381.757 0.550,381.522 0.525 C 381.286 0.500,380.962 0.395,380.800 0.290 C 380.463 0.074,21.361 -0.082,21.145 0.134 M119.766 90.348 C 138.395 108.929,157.817 128.291,162.927 133.375 L 172.218 142.618 128.988 185.740 L 85.758 228.861 81.313 224.486 C 75.068 218.338,56.988 200.127,56.978 199.975 C 56.973 199.905,69.833 187.045,85.556 171.396 C 101.278 155.747,114.141 142.857,114.141 142.750 C 114.141 142.644,106.891 135.315,98.030 126.463 C 89.169 117.611,76.288 104.722,69.405 97.821 L 56.891 85.273 71.213 70.919 C 79.090 63.025,85.617 56.566,85.716 56.566 C 85.815 56.566,101.138 71.768,119.766 90.348 M286.970 214.444 L 286.970 228.788 229.394 228.788 L 171.818 228.788 171.766 214.646 C 171.737 206.869,171.757 200.391,171.810 200.252 C 171.887 200.050,183.519 200.010,229.438 200.050 L 286.970 200.101 286.970 214.444 " stroke="none" fill="#343434" fill-rule="evenodd"></path><path id="path2" d="M0.010 11.162 L 0.019 22.323 0.510 20.469 C 2.950 11.244,10.216 3.572,19.394 0.528 L 20.909 0.025 10.455 0.013 L 0.000 0.000 0.010 11.162 M382.359 0.701 C 389.628 3.153,395.642 8.570,399.075 15.758 L 399.992 17.677 399.996 8.838 L 400.000 0.000 390.152 0.003 L 380.303 0.007 382.359 0.701 M0.015 331.869 L 0.000 343.232 11.566 343.223 L 23.131 343.213 21.287 342.725 C 11.021 340.009,3.295 332.405,0.518 322.286 L 0.030 320.505 0.015 331.869 M399.235 326.636 C 395.968 334.414,387.859 341.048,379.335 342.917 C 378.219 343.162,379.284 343.194,389.040 343.212 L 400.000 343.232 400.000 334.141 C 400.000 329.141,399.977 325.052,399.949 325.053 C 399.922 325.055,399.600 325.767,399.235 326.636 " stroke="none" fill="#fafafa" fill-rule="evenodd"></path><path id="path3" d="M85.556 114.141 C 86.439 115.030,87.208 115.758,87.263 115.758 C 87.319 115.758,86.641 115.030,85.758 114.141 C 84.874 113.253,84.105 112.525,84.050 112.525 C 83.994 112.525,84.672 113.253,85.556 114.141 M97.172 125.758 C 99.225 127.813,100.950 129.495,101.006 129.495 C 101.062 129.495,99.427 127.813,97.374 125.758 C 95.320 123.702,93.595 122.020,93.539 122.020 C 93.484 122.020,95.118 123.702,97.172 125.758 M162.829 133.434 C 167.884 138.545,172.062 142.701,172.113 142.668 C 172.164 142.636,168.028 138.454,162.922 133.376 L 153.639 124.141 162.829 133.434 M75.455 218.788 C 76.561 219.899,77.513 220.808,77.568 220.808 C 77.624 220.808,76.764 219.899,75.657 218.788 C 74.550 217.677,73.598 216.768,73.543 216.768 C 73.487 216.768,74.348 217.677,75.455 218.788 M95.249 219.444 L 93.030 221.717 95.303 219.498 C 97.414 217.438,97.667 217.172,97.522 217.172 C 97.492 217.172,96.469 218.194,95.249 219.444 M112.374 343.182 C 160.902 343.210,240.311 343.210,288.838 343.182 C 337.366 343.154,297.662 343.131,200.606 343.131 C 103.551 343.131,63.846 343.154,112.374 343.182 " stroke="none" fill="#0d1d0d" fill-rule="evenodd"></path><path id="path4" d="M7.879 7.576 C 7.388 8.076,7.032 8.485,7.088 8.485 C 7.143 8.485,7.590 8.076,8.081 7.576 C 8.572 7.076,8.928 6.667,8.872 6.667 C 8.816 6.667,8.370 7.076,7.879 7.576 M131.919 102.727 C 153.863 124.672,171.863 142.626,171.919 142.626 C 171.974 142.626,154.065 124.672,132.121 102.727 C 110.177 80.783,92.177 62.828,92.122 62.828 C 92.066 62.828,109.975 80.783,131.919 102.727 M67.676 74.495 L 60.101 82.121 67.727 74.546 C 71.922 70.380,75.354 66.949,75.354 66.920 C 75.354 66.778,74.716 67.407,67.676 74.495 M107.678 136.061 C 111.289 139.727,114.284 142.701,114.335 142.669 C 114.386 142.636,111.432 139.636,107.771 136.002 L 101.114 129.394 107.678 136.061 M169.189 145.505 L 166.566 148.182 169.242 145.558 C 171.729 143.122,172.011 142.828,171.866 142.828 C 171.836 142.828,170.632 144.033,169.189 145.505 M152.626 162.071 L 141.313 173.434 152.677 162.122 C 158.927 155.900,164.040 150.786,164.040 150.758 C 164.040 150.616,163.141 151.508,152.626 162.071 M72.525 184.394 L 56.869 200.101 72.576 184.445 C 87.177 169.891,88.373 168.687,88.232 168.687 C 88.204 168.687,81.136 175.755,72.525 184.394 M286.768 214.444 C 286.768 222.368,286.836 228.808,286.919 228.757 C 287.003 228.705,287.071 222.265,287.071 214.444 C 287.071 206.624,287.003 200.184,286.919 200.132 C 286.836 200.081,286.768 206.521,286.768 214.444 M67.576 210.707 C 73.242 216.374,77.923 221.010,77.978 221.010 C 78.034 221.010,73.444 216.374,67.778 210.707 C 62.112 205.040,57.431 200.404,57.375 200.404 C 57.320 200.404,61.910 205.040,67.576 210.707 M393.225 335.202 L 392.222 336.263 393.283 335.260 C 393.866 334.709,394.343 334.231,394.343 334.200 C 394.343 334.049,394.156 334.216,393.225 335.202 " stroke="none" fill="#34742c" fill-rule="evenodd"></path></g></svg>